<?xml version="1.0" standalone="no"?>
<!DOCTYPE svg PUBLIC "-//W3C//DTD SVG 20010904//EN"
 "http://www.w3.org/TR/2001/REC-SVG-20010904/DTD/svg10.dtd">
<svg version="1.0" xmlns="http://www.w3.org/2000/svg"
 width="416.000000pt" height="416.000000pt" viewBox="0 0 416.000000 416.000000"
 preserveAspectRatio="xMidYMid meet">
<metadata>
Created by potrace 1.14, written by Peter Selinger 2001-2017
</metadata>
<g transform="translate(0.000000,416.000000) scale(0.100000,-0.100000)"
fill="#000000" stroke="none">
<path d="M2165 3810 c9 -15 -23 -24 -47 -13 -23 10 -141 -16 -160 -35 -7 -7
-18 -12 -25 -12 -7 0 -13 -5 -13 -11 0 -6 -9 -9 -20 -6 -11 3 -26 0 -33 -7
-21 -20 -71 -51 -83 -51 -6 0 -37 -26 -68 -58 -31 -31 -60 -57 -64 -57 -13 0
-52 -64 -43 -70 5 -3 13 -18 16 -33 8 -31 35 -37 35 -8 0 25 18 37 33 22 19
-19 50 -12 74 16 16 18 23 21 23 11 0 -9 6 -21 13 -27 19 -15 134 -18 148 -4
9 9 20 8 48 -3 34 -14 37 -14 50 6 14 21 14 21 35 1 18 -17 61 -36 126 -57 11
-4 16 4 17 26 2 27 0 30 -17 25 -12 -4 -26 0 -36 9 -8 9 -13 16 -9 16 3 0 -1
10 -9 22 -9 12 -16 32 -16 43 0 12 3 15 8 9 10 -15 41 -14 35 2 -2 6 0 15 6
18 6 4 8 13 4 21 -3 9 1 15 11 15 9 0 16 -7 16 -15 0 -18 16 -20 26 -3 5 7 10
4 15 -10 5 -12 15 -22 23 -22 24 0 30 -39 10 -61 -22 -24 -31 -24 -39 1 -3 11
-11 20 -16 20 -20 0 -6 -27 36 -68 25 -24 42 -49 39 -56 -9 -24 16 -29 35 -7
l19 21 5 -21 c3 -11 15 -23 26 -26 11 -3 24 -18 30 -34 5 -16 17 -29 25 -29 8
0 19 -7 23 -15 6 -9 28 -17 58 -19 36 -3 50 -9 49 -19 -1 -10 14 -16 54 -20
35 -4 59 -12 64 -21 6 -10 23 -16 48 -16 41 0 49 -7 28 -28 -9 -9 -7 -16 7
-32 20 -22 45 -26 62 -9 12 12 16 2 26 -61 3 -14 5 -1 6 28 0 28 -3 52 -8 52
-22 0 -38 105 -20 127 6 7 7 22 3 35 -4 13 -9 29 -10 36 -1 8 -11 23 -20 33
-10 11 -20 32 -22 47 -2 15 -8 32 -14 37 -8 7 -9 5 -5 -7 4 -10 2 -18 -3 -18
-13 0 -13 16 1 42 8 15 8 19 0 13 -12 -7 -41 11 -41 26 0 5 8 6 18 2 10 -3 6
6 -13 23 -16 16 -33 28 -38 26 -9 -3 -37 23 -37 35 0 5 -10 13 -22 18 -13 6
-22 16 -20 23 1 7 -5 12 -13 12 -8 0 -15 6 -15 13 0 6 -15 19 -33 27 -17 8
-31 21 -30 28 2 6 -3 12 -11 12 -8 0 -17 6 -19 13 -4 10 -6 10 -6 0 -1 -7 -5
-13 -11 -13 -5 0 -7 7 -4 15 4 8 1 15 -5 15 -6 0 -11 -7 -11 -15 0 -19 -9 -19
-32 2 -13 11 -18 12 -18 3 0 -7 -15 4 -34 24 -34 36 -66 41 -66 10 0 -21 -15
-17 -34 9 -12 15 -18 18 -22 10 -3 -8 -22 -12 -47 -12 l-42 2 35 7 35 7 -43 2
c-27 0 -41 -3 -37 -9z m-85 -155 c11 -13 10 -14 -4 -9 -9 3 -16 10 -16 15 0
13 6 11 20 -6z m108 -24 c-7 -9 -14 -18 -16 -21 -3 -3 -1 5 2 18 5 14 3 22 -4
22 -6 0 -8 5 -5 10 5 8 11 7 21 -1 11 -9 12 -15 2 -28z m639 -343 c-3 -8 -6
-5 -6 6 -1 11 2 17 5 13 3 -3 4 -12 1 -19z"/>
<path d="M1560 3438 c0 -9 5 -20 11 -23 17 -11 20 0 4 21 -13 17 -14 17 -15 2z"/>
<path d="M2256 3415 c-3 -8 -1 -15 4 -15 6 0 10 7 10 15 0 8 -2 15 -4 15 -2 0
-6 -7 -10 -15z"/>
<path d="M1526 3375 c-3 -9 -2 -13 3 -10 5 3 11 -3 13 -12 3 -17 4 -17 10 -1
4 9 1 21 -6 28 -10 8 -15 7 -20 -5z"/>
<path d="M1521 3284 c0 -11 3 -14 6 -6 3 7 2 16 -1 19 -3 4 -6 -2 -5 -13z"/>
<path d="M2725 3170 c3 -5 8 -10 11 -10 2 0 4 5 4 10 0 6 -5 10 -11 10 -5 0
-7 -4 -4 -10z"/>
<path d="M2780 3076 c0 -8 5 -18 10 -21 6 -3 10 3 10 14 0 12 -4 21 -10 21 -5
0 -10 -6 -10 -14z"/>
<path d="M1630 3017 c0 -8 11 -35 24 -60 l23 -47 -29 0 c-45 0 -69 17 -63 43
5 18 0 24 -24 34 -25 9 -35 8 -53 -5 -13 -10 -32 -22 -43 -28 -19 -10 -93
-136 -94 -161 -1 -7 8 -13 19 -13 10 0 24 -9 30 -20 6 -11 21 -20 34 -20 12 0
33 -11 46 -25 13 -14 28 -25 33 -25 5 0 21 -8 35 -19 68 -46 210 -79 232 -52
19 23 127 96 144 97 28 2 63 -31 77 -75 32 -99 69 -145 129 -161 50 -13 227
-7 295 11 22 6 50 10 63 10 13 -1 22 5 22 14 0 9 7 18 15 21 24 10 17 54 -15
91 -16 18 -30 29 -30 23 0 -17 -20 -11 -58 18 -72 54 -73 56 -42 84 15 13 33
22 40 20 8 -3 4 5 -7 17 -11 12 -35 26 -54 32 -34 10 -209 29 -304 33 -135 5
-134 5 -173 40 -33 30 -155 96 -179 96 -4 0 -19 9 -33 20 -29 23 -60 26 -60 7z
m-10 -208 c0 -18 -2 -19 -15 -9 -15 12 -12 30 6 30 5 0 9 -10 9 -21z m129 -33
c9 -10 8 -15 -4 -20 -10 -4 -15 1 -15 14 0 24 4 25 19 6z m489 -139 c2 -15 -1
-27 -7 -27 -6 0 -11 4 -11 9 0 5 -12 12 -27 16 l-28 7 25 13 c33 19 44 14 48
-18z m142 -22 c0 -9 -10 -15 -25 -15 -18 0 -25 5 -25 18 0 10 3 22 6 25 10 10
44 -12 44 -28z m41 -64 c-7 -5 -22 -6 -33 -3 -20 5 -19 6 3 18 27 14 55 0 30
-15z"/>
<path d="M1363 3011 c-23 -7 -51 -38 -77 -88 -18 -36 -23 -207 -6 -218 6 -3
10 5 10 19 0 13 6 31 13 38 7 7 26 49 42 93 15 44 35 95 43 113 17 37 8 52
-25 43z"/>
<path d="M1332 2703 c-9 -21 -23 -42 -29 -46 -15 -9 -18 -127 -4 -127 12 0 20
-69 11 -95 -9 -28 23 -144 35 -124 7 10 11 5 16 -21 4 -19 11 -48 17 -65 6
-16 23 -70 38 -120 15 -49 31 -98 35 -107 5 -10 9 -28 9 -41 0 -13 5 -28 11
-34 6 -6 12 -34 12 -62 0 -28 5 -51 10 -51 11 0 4 -64 -17 -155 -13 -55 -16
-61 -20 -36 -3 26 -16 17 -36 -26 -20 -43 -22 -59 -17 -155 3 -77 9 -115 21
-133 23 -35 99 -81 166 -101 30 -9 79 -25 109 -36 45 -16 59 -17 83 -7 22 9
35 9 54 0 17 -7 45 -8 92 -2 37 6 112 13 167 16 115 8 230 41 281 83 62 51
164 210 164 256 0 9 7 16 15 16 9 0 18 7 21 15 3 8 15 17 26 21 17 5 18 8 5
22 -9 10 -19 31 -23 47 -9 40 -49 118 -67 133 -8 7 -26 11 -41 10 -31 -3 -33
-20 -10 -93 22 -73 22 -178 0 -200 -9 -10 -18 -16 -20 -14 -12 14 -26 51 -26
69 0 11 -7 23 -16 27 -13 5 -14 20 -9 97 4 50 8 108 9 129 1 21 6 41 11 45 6
4 11 34 13 67 2 33 7 62 11 65 4 3 13 26 21 53 7 26 16 50 21 52 12 8 57 106
78 173 8 27 7 34 -5 39 -21 8 -54 -25 -54 -54 0 -32 -10 -29 -43 12 -15 19
-31 34 -35 33 -8 -1 -24 5 -89 33 -23 11 -48 19 -55 19 -7 0 -31 16 -52 35
-21 20 -52 43 -67 52 -16 10 -29 21 -29 25 0 4 -7 8 -15 8 -18 0 -18 -2 -4
-34 14 -30 -3 -81 -32 -96 -21 -12 -63 2 -94 29 -25 22 -78 41 -117 41 -16 0
-44 6 -63 14 -21 9 -37 11 -40 5 -12 -18 -63 -10 -79 13 -31 43 -18 108 21
108 13 0 22 4 18 10 -6 9 -59 8 -192 -5 -51 -5 -73 -4 -73 4 0 6 -17 19 -39
30 -48 25 -75 78 -68 132 3 22 3 39 1 39 -2 0 -12 -17 -22 -37z m298 -388 c0
-28 -4 -35 -19 -35 -26 0 -35 29 -15 51 25 28 34 23 34 -16z m506 -114 c13
-35 22 -67 19 -70 -4 -3 -9 -1 -13 5 -4 6 -18 14 -32 17 -14 3 -34 13 -45 21
-17 12 -18 18 -7 33 6 10 17 28 22 41 15 35 30 23 56 -47z m-483 -38 c-5 -13
0 -15 26 -11 23 3 31 1 27 -8 -4 -9 5 -11 31 -7 43 7 63 -13 63 -64 0 -47 16
-41 24 8 6 39 8 41 34 35 20 -5 203 -34 220 -36 1 0 2 -10 2 -22 0 -25 -27
-58 -47 -58 -7 0 -13 -5 -13 -10 0 -7 -6 -8 -16 -2 -16 9 -42 1 -96 -29 -38
-20 -170 4 -218 39 -57 43 -110 171 -67 164 10 -2 17 3 17 13 0 9 4 14 10 10
5 -3 6 -13 3 -22z m454 -250 c-6 -45 -36 -103 -52 -103 -17 0 -17 -2 -9 -24
11 -29 80 -12 119 30 11 12 36 30 55 39 19 10 38 22 42 28 3 6 6 -5 5 -23 -2
-26 3 -37 21 -46 l23 -11 -25 -17 c-14 -9 -29 -16 -33 -16 -4 0 -19 -9 -33
-20 -14 -11 -33 -20 -42 -20 -10 0 -18 -4 -18 -9 0 -5 -16 -18 -34 -29 -35
-21 -35 -21 -60 -1 -13 10 -29 19 -36 19 -6 0 -11 10 -10 23 5 52 1 57 -35 57
-47 0 -65 17 -54 53 4 15 8 30 8 33 0 3 17 19 37 35 29 23 47 29 86 29 48 0
49 -1 45 -27z m-625 -415 c-2 -51 -7 -97 -12 -101 -4 -5 -13 21 -20 56 -12 66
-8 87 24 123 6 8 11 13 11 14 0 0 -2 -42 -3 -92z"/>
<path d="M2780 2645 c0 -8 -4 -15 -8 -15 -10 0 -48 -91 -44 -104 2 -5 -6 -18
-16 -30 -11 -11 -22 -34 -25 -51 -4 -26 -50 -142 -79 -198 -23 -45 34 -50 82
-7 18 16 36 31 40 32 4 2 33 41 65 88 32 47 64 90 71 97 15 16 27 94 18 127
-4 16 -13 26 -24 26 -9 0 -29 11 -44 25 -31 29 -36 30 -36 10z"/>
<path d="M1021 1410 c9 -5 36 -5 65 -1 l49 9 -65 1 c-44 0 -60 -3 -49 -9z"/>
<path d="M303 1358 c-5 -7 -16 -32 -23 -56 -12 -37 -12 -45 0 -52 8 -5 11 -12
7 -16 -3 -4 -14 -1 -23 7 -15 12 -16 11 -9 -11 4 -14 12 -27 17 -28 18 -8 39
-80 45 -157 5 -72 4 -78 -10 -65 -18 17 -50 70 -71 118 -8 17 -18 32 -22 32
-9 0 4 -62 14 -70 5 -3 24 -36 42 -75 33 -70 55 -166 66 -300 5 -54 12 -78 33
-105 32 -43 53 -81 47 -87 -2 -3 -13 8 -23 24 -10 15 -24 35 -32 43 -27 28
-92 135 -128 210 -19 41 -38 77 -42 80 -3 3 -12 27 -19 55 -14 53 -19 62 -28
53 -18 -19 73 -254 136 -350 27 -42 50 -84 50 -93 0 -9 4 -13 10 -10 10 6 14
-7 11 -32 -1 -6 7 -14 18 -18 18 -5 36 -46 32 -73 -3 -19 17 -14 22 6 3 9 5 1
6 -18 1 -55 -10 -65 -50 -44 -19 9 -39 24 -46 33 -23 30 -15 -10 22 -104 30
-75 46 -101 101 -158 35 -37 69 -65 74 -62 5 3 1 28 -10 58 -10 29 -22 70 -25
92 -10 61 -26 106 -35 100 -5 -3 -12 0 -16 6 -5 8 -3 9 6 4 10 -6 11 7 7 61
-4 38 -11 94 -17 124 -6 30 -8 76 -5 101 4 26 1 65 -6 90 -6 24 -13 89 -14
144 -2 55 -8 134 -14 175 -20 136 -30 194 -40 245 -6 28 -14 65 -17 82 -8 40
-27 59 -41 41z"/>
<path d="M930 1269 c0 -18 2 -19 15 -9 8 7 15 16 15 21 0 5 -7 9 -15 9 -9 0
-15 -9 -15 -21z"/>
<path d="M3695 1120 c3 -5 11 -10 16 -10 6 0 7 5 4 10 -3 6 -11 10 -16 10 -6
0 -7 -4 -4 -10z"/>
<path d="M3810 1060 c0 -5 5 -10 10 -10 6 0 10 5 10 10 0 6 -4 10 -10 10 -5 0
-10 -4 -10 -10z"/>
<path d="M3809 953 c-39 -38 -79 -72 -90 -77 -10 -5 -19 -13 -19 -18 0 -4 -6
-8 -13 -8 -8 0 -19 -10 -24 -22 -6 -13 -31 -46 -54 -74 -24 -27 -57 -67 -74
-88 -16 -22 -36 -45 -43 -52 -11 -11 -8 -15 13 -20 32 -8 40 -1 115 99 34 45
95 111 135 147 81 72 115 111 133 153 19 43 -2 33 -79 -40z"/>
<path d="M2680 966 c0 -9 5 -16 10 -16 6 0 10 4 10 9 0 6 -4 13 -10 16 -5 3
-10 -1 -10 -9z"/>
<path d="M1620 810 c0 -20 -9 -53 -20 -75 -11 -22 -20 -59 -20 -83 0 -36 3
-43 18 -40 13 2 17 15 19 53 1 28 6 72 12 100 5 29 6 56 0 65 -6 11 -8 5 -9
-20z"/>
<path d="M78 818 c-7 -21 2 -43 23 -56 18 -12 19 -10 13 15 -8 37 -30 61 -36
41z"/>
<path d="M3420 745 c-25 -29 -49 -54 -55 -54 -5 -1 -38 -31 -72 -68 -66 -72
-67 -94 -4 -66 20 8 46 17 57 18 33 4 64 24 64 40 0 8 14 25 30 37 35 26 74
96 68 124 -7 37 -41 25 -88 -31z"/>
<path d="M16 695 c-19 -14 -18 -17 17 -96 21 -44 37 -91 37 -104 0 -13 6 -30
14 -37 7 -8 17 -34 21 -59 4 -24 18 -66 32 -92 34 -68 83 -204 83 -230 -1 -21
-1 -21 -24 4 -12 15 -35 34 -49 44 -15 10 -27 27 -27 39 0 11 -4 27 -9 35 -17
27 -36 -63 -23 -107 7 -20 13 -48 14 -62 3 -24 5 -25 97 -28 l94 -3 -15 23
c-8 13 -21 60 -28 105 -7 46 -16 83 -21 83 -5 0 -9 9 -9 21 0 12 4 17 11 13 7
-4 9 0 5 14 -4 12 -2 39 4 61 9 35 7 46 -15 93 -14 29 -30 60 -35 68 -22 34
-80 143 -80 150 0 19 -46 79 -60 79 -8 0 -24 -6 -34 -14z"/>
<path d="M201 638 c-1 -16 3 -28 9 -28 5 0 17 -17 26 -37 10 -21 26 -50 36
-65 10 -14 18 -33 18 -42 0 -9 7 -16 15 -16 21 0 19 10 -10 51 -13 20 -21 39
-18 43 4 4 -3 13 -15 22 -12 8 -22 22 -22 30 0 8 -4 14 -8 14 -5 0 -13 12 -19
28 l-11 27 -1 -27z"/>
<path d="M3635 535 c-61 -64 -74 -73 -100 -70 -16 2 -40 4 -53 4 -15 1 -29 12
-40 31 -18 33 -39 35 -95 12 -16 -7 -36 -12 -46 -12 -10 0 -21 -3 -24 -6 -16
-16 -126 -56 -162 -59 -78 -7 -105 -20 -160 -74 -30 -30 -55 -58 -55 -62 0 -4
-10 -5 -22 -1 -14 3 -19 1 -14 -6 3 -6 -2 -13 -12 -16 -9 -3 -35 -24 -57 -46
-22 -21 -44 -40 -50 -40 -5 0 -27 -15 -47 -34 -35 -33 -38 -33 -65 -19 -65 35
-131 9 -191 -76 l-42 -60 141 0 c110 -1 146 2 162 14 41 29 95 37 151 24 28
-7 58 -19 67 -26 11 -9 47 -13 115 -13 l99 1 20 32 c16 25 31 34 75 45 88 20
121 22 127 6 3 -8 16 -14 28 -14 13 0 25 -5 27 -12 6 -18 110 8 170 43 27 16
50 29 52 29 2 0 24 19 49 42 49 43 58 65 32 74 -8 4 -15 16 -15 28 0 17 -2 18
-10 6 -9 -13 -12 -12 -25 4 -8 11 -15 26 -15 34 0 10 -5 12 -17 6 -10 -4 -43
-10 -73 -12 -30 -2 -62 -10 -70 -17 -51 -43 -136 -73 -196 -67 -83 8 -118 5
-154 -12 -41 -19 -73 -38 -80 -48 -8 -10 -102 -56 -131 -63 -32 -8 -52 13 -47
52 4 33 74 83 152 109 49 17 50 16 64 -4 l14 -21 51 27 c29 15 54 30 55 35 2
4 19 7 38 7 28 0 42 9 80 49 29 32 58 52 78 56 17 4 39 9 49 11 11 4 17 0 17
-10 0 -18 15 -21 25 -6 3 5 22 17 43 27 20 9 44 24 52 33 9 8 33 30 53 48 35
31 75 93 60 91 -5 0 -39 -33 -78 -74z m-245 -405 c-8 -5 -19 -10 -25 -10 -5 0
-3 5 5 10 8 5 20 10 25 10 6 0 3 -5 -5 -10z"/>
<path d="M1528 594 c-13 -13 -9 -41 8 -55 12 -10 15 -24 10 -55 -4 -33 -1 -45
14 -59 30 -27 40 -10 40 75 0 83 -7 98 -39 80 -15 -8 -20 -7 -23 6 -2 9 -6 12
-10 8z"/>
<path d="M3745 480 c-22 -16 -53 -39 -70 -50 -27 -18 -28 -20 -9 -20 12 0 45
22 75 50 61 57 62 62 4 20z"/>
<path d="M336 453 c-12 -12 -5 -33 14 -43 17 -9 20 -8 20 14 0 23 -21 41 -34
29z"/>
<path d="M400 340 c0 -5 5 -10 10 -10 6 0 10 5 10 10 0 6 -4 10 -10 10 -5 0
-10 -4 -10 -10z"/>
<path d="M1499 145 c-1 -3 -2 -8 -3 -12 -1 -5 -6 -34 -10 -66 -4 -31 -12 -55
-17 -52 -5 4 -9 1 -9 -5 0 -7 15 -10 38 -8 37 3 37 3 42 55 3 28 9 55 12 59
10 9 -17 34 -36 34 -9 0 -17 -2 -17 -5z"/>
<path d="M1890 91 c0 -5 5 -13 10 -16 6 -3 10 -2 10 4 0 5 -4 13 -10 16 -5 3
-10 2 -10 -4z"/>
<path d="M1890 30 c0 -20 5 -30 15 -30 10 0 15 10 15 30 0 20 -5 30 -15 30
-10 0 -15 -10 -15 -30z"/>
<path d="M3313 3 c9 -2 23 -2 30 0 6 3 -1 5 -18 5 -16 0 -22 -2 -12 -5z"/>
</g>
</svg>
